<svg width="820" height="360" viewBox="0 0 820 360" fill="none" xmlns="http://www.w3.org/2000/svg">
  <defs>
    <linearGradient id="wireGlow" x1="0" y1="0" x2="1" y2="1">
      <stop offset="0%" stop-color="#7DFFAD" />
      <stop offset="100%" stop-color="#5BD1FF" />
    </linearGradient>
    <filter id="softGlow" x="-30%" y="-30%" width="160%" height="160%" color-interpolation-filters="sRGB">
      <feGaussianBlur stdDeviation="7" result="blur" />
      <feMerge>
        <feMergeNode in="blur" />
        <feMergeNode in="SourceGraphic" />
      </feMerge>
    </filter>
  </defs>

  <rect x="1" y="1" width="818" height="358" rx="20" stroke="rgba(125,255,173,0.28)" />

  <!-- Subtle grid -->
  <g stroke="rgba(125,255,173,0.07)">
    <line x1="120" y1="40" x2="120" y2="320" />
    <line x1="220" y1="40" x2="220" y2="320" />
    <line x1="320" y1="40" x2="320" y2="320" />
    <line x1="420" y1="40" x2="420" y2="320" />
    <line x1="520" y1="40" x2="520" y2="320" />
    <line x1="620" y1="40" x2="620" y2="320" />
    <line x1="720" y1="40" x2="720" y2="320" />
  </g>

  <!-- Cube A (left) -->
  <g stroke="url(#wireGlow)" stroke-width="3" filter="url(#softGlow)">
    <rect x="200" y="115" width="160" height="160" />
    <rect x="255" y="75" width="160" height="160" stroke-dasharray="6 6" stroke-opacity="0.5" />
    <line x1="200" y1="115" x2="255" y2="75" />
    <line x1="360" y1="115" x2="415" y2="75" />
    <line x1="200" y1="275" x2="255" y2="235" />
    <line x1="360" y1="275" x2="415" y2="235" />
  </g>

  <!-- Cube B (right, shifted left to intersect) -->
  <g stroke="url(#wireGlow)" stroke-width="3" filter="url(#softGlow)" stroke-opacity="0.9">
    <rect x="310" y="165" width="160" height="160" />
    <rect x="365" y="125" width="160" height="160" stroke-dasharray="6 6" stroke-opacity="0.5" />
    <line x1="310" y1="165" x2="365" y2="125" />
    <line x1="470" y1="165" x2="525" y2="125" />
    <line x1="310" y1="325" x2="365" y2="285" />
    <line x1="470" y1="325" x2="525" y2="285" />
  </g>

  <!-- Overlap highlights to show interpenetration -->
  <g stroke="rgba(91,209,255,0.55)" stroke-width="2">
    <line x1="330" y1="185" x2="360" y2="185" />
    <line x1="330" y1="215" x2="360" y2="215" />
    <line x1="360" y1="245" x2="400" y2="245" />
    <line x1="400" y1="215" x2="430" y2="215" />
  </g>
</svg>
