<svg width="820" height="360" viewBox="0 0 820 360" fill="none" xmlns="http://www.w3.org/2000/svg">
  <defs>
    <linearGradient id="glow" x1="0" y1="0" x2="1" y2="1">
      <stop offset="0%" stop-color="#7DFFAD" />
      <stop offset="100%" stop-color="#5BD1FF" />
    </linearGradient>
    <filter id="softGlow" x="-30%" y="-30%" width="160%" height="160%" color-interpolation-filters="sRGB">
      <feGaussianBlur stdDeviation="12" result="blur" />
      <feMerge>
        <feMergeNode in="blur" />
        <feMergeNode in="SourceGraphic" />
      </feMerge>
    </filter>
  </defs>

  <rect x="1" y="1" width="818" height="358" rx="20" stroke="rgba(125,255,173,0.28)" />

  <!-- Subtle grid -->
  <g stroke="rgba(125,255,173,0.07)">
    <line x1="120" y1="40" x2="120" y2="320" />
    <line x1="220" y1="40" x2="220" y2="320" />
    <line x1="320" y1="40" x2="320" y2="320" />
    <line x1="420" y1="40" x2="420" y2="320" />
    <line x1="520" y1="40" x2="520" y2="320" />
    <line x1="620" y1="40" x2="620" y2="320" />
    <line x1="720" y1="40" x2="720" y2="320" />
  </g>

  <!-- Key -->
  <g filter="url(#softGlow)">
    <circle cx="540" cy="176" r="64" stroke="url(#glow)" stroke-width="6" fill="rgba(10,15,18,0.75)" />
    <circle cx="540" cy="176" r="22" stroke="url(#glow)" stroke-width="4" fill="transparent" />
    <rect x="596" y="166" width="170" height="20" rx="10" fill="url(#glow)" />
    <rect x="730" y="156" width="20" height="40" rx="6" fill="url(#glow)" />
    <rect x="760" y="156" width="20" height="40" rx="6" fill="url(#glow)" />
  </g>

  <!-- Claw palm -->
  <path d="M240 210 C250 175, 290 150, 340 150 C380 150, 400 165, 420 190 C430 205, 435 230, 430 250 C420 275, 390 290, 350 292 C305 295, 255 280, 235 255 C225 242, 225 226, 240 210 Z" fill="rgba(12,18,22,0.9)" stroke="url(#glow)" stroke-width="3" filter="url(#softGlow)" />

  <!-- Claw fingers -->
  <g stroke="url(#glow)" stroke-width="10" stroke-linecap="round" filter="url(#softGlow)">
    <path d="M300 150 C280 120, 260 95, 235 80" />
    <path d="M340 150 C325 115, 305 90, 280 70" />
    <path d="M380 165 C370 125, 355 95, 335 75" />
  </g>

  <!-- Talons gripping key ring -->
  <g fill="url(#glow)" filter="url(#softGlow)">
    <path d="M255 92 L300 120 L262 135 Z" />
    <path d="M300 82 L340 115 L305 132 Z" />
    <path d="M350 86 L388 122 L355 138 Z" />
  </g>

  <!-- Grip contact highlights -->
  <g stroke="rgba(125,255,173,0.5)" stroke-width="2" filter="url(#softGlow)">
    <path d="M395 195 C420 188, 450 182, 480 178" />
    <path d="M400 215 C428 208, 455 202, 485 198" />
  </g>
</svg>
