<svg width="820" height="360" viewBox="0 0 820 360" fill="none" xmlns="http://www.w3.org/2000/svg">
  <defs>
    <linearGradient id="wireGlow" x1="0" y1="0" x2="1" y2="1">
      <stop offset="0%" stop-color="#7DFFAD" />
      <stop offset="100%" stop-color="#5BD1FF" />
    </linearGradient>
    <filter id="softGlow" x="-30%" y="-30%" width="160%" height="160%" color-interpolation-filters="sRGB">
      <feGaussianBlur stdDeviation="8" result="blur" />
      <feMerge>
        <feMergeNode in="blur" />
        <feMergeNode in="SourceGraphic" />
      </feMerge>
    </filter>
  </defs>

  <rect x="1" y="1" width="818" height="358" rx="20" stroke="rgba(125,255,173,0.28)" />

  <!-- Subtle grid -->
  <g stroke="rgba(125,255,173,0.07)">
    <line x1="120" y1="40" x2="120" y2="320" />
    <line x1="220" y1="40" x2="220" y2="320" />
    <line x1="320" y1="40" x2="320" y2="320" />
    <line x1="420" y1="40" x2="420" y2="320" />
    <line x1="520" y1="40" x2="520" y2="320" />
    <line x1="620" y1="40" x2="620" y2="320" />
    <line x1="720" y1="40" x2="720" y2="320" />
  </g>

  <!-- Wireframe cubes -->
  <g stroke="url(#wireGlow)" stroke-width="3" filter="url(#softGlow)">
    <!-- Cube A (front-left) -->
    <rect x="170" y="140" width="140" height="140" />
    <rect x="220" y="95" width="140" height="140" />
    <line x1="170" y1="140" x2="220" y2="95" />
    <line x1="310" y1="140" x2="360" y2="95" />
    <line x1="170" y1="280" x2="220" y2="235" />
    <line x1="310" y1="280" x2="360" y2="235" />

    <!-- Cube B (intertwined, right) -->
    <rect x="420" y="150" width="150" height="150" />
    <rect x="475" y="105" width="150" height="150" />
    <line x1="420" y1="150" x2="475" y2="105" />
    <line x1="570" y1="150" x2="625" y2="105" />
    <line x1="420" y1="300" x2="475" y2="255" />
    <line x1="570" y1="300" x2="625" y2="255" />

    <!-- Intertwined bridges -->
    <line x1="360" y1="170" x2="420" y2="150" />
    <line x1="360" y1="235" x2="420" y2="235" />
    <line x1="310" y1="200" x2="420" y2="200" />
  </g>

  <!-- Dim secondary wire for depth -->
  <g stroke="rgba(91,209,255,0.35)" stroke-width="2">
    <line x1="220" y1="95" x2="360" y2="95" />
    <line x1="220" y1="235" x2="360" y2="235" />
    <line x1="475" y1="105" x2="625" y2="105" />
    <line x1="475" y1="255" x2="625" y2="255" />
  </g>
</svg>
