<svg width="820" height="360" viewBox="0 0 820 360" fill="none" xmlns="http://www.w3.org/2000/svg">
  <defs>
    <linearGradient id="wireGlow" x1="0" y1="0" x2="1" y2="1">
      <stop offset="0%" stop-color="#7DFFAD" />
      <stop offset="100%" stop-color="#5BD1FF" />
    </linearGradient>
    <filter id="softGlow" x="-30%" y="-30%" width="160%" height="160%" color-interpolation-filters="sRGB">
      <feGaussianBlur stdDeviation="7" result="blur" />
      <feMerge>
        <feMergeNode in="blur" />
        <feMergeNode in="SourceGraphic" />
      </feMerge>
    </filter>
  </defs>

  <rect x="1" y="1" width="818" height="358" rx="20" stroke="rgba(125,255,173,0.28)" />

  <!-- Subtle grid -->
  <g stroke="rgba(125,255,173,0.07)">
    <line x1="120" y1="40" x2="120" y2="320" />
    <line x1="220" y1="40" x2="220" y2="320" />
    <line x1="320" y1="40" x2="320" y2="320" />
    <line x1="420" y1="40" x2="420" y2="320" />
    <line x1="520" y1="40" x2="520" y2="320" />
    <line x1="620" y1="40" x2="620" y2="320" />
    <line x1="720" y1="40" x2="720" y2="320" />
  </g>

  <!-- Cube A (left, penetrated) -->
  <g stroke="url(#wireGlow)" stroke-width="3" filter="url(#softGlow)">
    <!-- front face -->
    <rect x="180" y="120" width="150" height="150" />
    <!-- back face -->
    <rect x="235" y="80" width="150" height="150" stroke-dasharray="6 6" stroke-opacity="0.5" />
    <!-- connectors -->
    <line x1="180" y1="120" x2="235" y2="80" />
    <line x1="330" y1="120" x2="385" y2="80" />
    <line x1="180" y1="270" x2="235" y2="230" />
    <line x1="330" y1="270" x2="385" y2="230" />
  </g>

  <!-- Cube B (right, interpenetrating) -->
  <g stroke="url(#wireGlow)" stroke-width="3" filter="url(#softGlow)" stroke-opacity="0.9">
    <!-- front face -->
    <rect x="360" y="170" width="150" height="150" />
    <!-- back face -->
    <rect x="415" y="130" width="150" height="150" stroke-dasharray="6 6" stroke-opacity="0.5" />
    <!-- connectors -->
    <line x1="360" y1="170" x2="415" y2="130" />
    <line x1="510" y1="170" x2="565" y2="130" />
    <line x1="360" y1="320" x2="415" y2="280" />
    <line x1="510" y1="320" x2="565" y2="280" />
  </g>

  <!-- Overlap highlights to suggest interpenetration -->
  <g stroke="rgba(91,209,255,0.55)" stroke-width="2">
    <line x1="330" y1="200" x2="360" y2="200" />
    <line x1="330" y1="230" x2="360" y2="230" />
    <line x1="385" y1="200" x2="415" y2="200" />
  </g>
</svg>
